HIERARCHY
ROOT Hips
{
	OFFSET 0.000000 97.167313 0.000000
	CHANNELS 6 Xposition Yposition Zposition Xrotation Yrotation Zrotation
	JOINT Spine
	{
		OFFSET 0.000000 13.784798 0.064400
		CHANNELS 3 Xrotation Yrotation Zrotation
		JOINT Spine1
		{
			OFFSET 0.000000 12.037903 0.404700
			CHANNELS 3 Xrotation Yrotation Zrotation
			JOINT Spine2
			{
				OFFSET 0.000000 17.795601 0.420200
				CHANNELS 3 Xrotation Yrotation Zrotation
				JOINT Neck
				{
					OFFSET 0.000000 39.131302 11.954600
					CHANNELS 3 Xrotation Yrotation Zrotation
					JOINT Head
					{
						OFFSET 0.000000 14.456192 15.627699
						CHANNELS 3 Xrotation Yrotation Zrotation
						JOINT HeadTop_End
						{
							OFFSET 0.000000 15.703506 7.603401
							CHANNELS 3 Xrotation Yrotation Zrotation
							End Site
							{
								OFFSET 0.000000 17.447403 0.000000
							}
						}
					}
				}
				JOINT LeftShoulder
				{
					OFFSET 17.399500 24.608795 1.168800
					CHANNELS 3 Xrotation Yrotation Zrotation
					JOINT LeftArm
					{
						OFFSET 18.980635 5.765305 1.818600
						CHANNELS 3 Xrotation Yrotation Zrotation
						JOINT LeftForeArm
						{
							OFFSET 49.290169 0.000000 0.000000
							CHANNELS 3 Xrotation Yrotation Zrotation
							JOINT LeftHand
							{
								OFFSET 31.562012 0.000000 0.000000
								CHANNELS 3 Xrotation Yrotation Zrotation
								JOINT LeftHandThumb1
								{
									OFFSET 6.133995 -4.388519 7.076070
									CHANNELS 3 Xrotation Yrotation Zrotation
									JOINT LeftHandThumb2
									{
										OFFSET 6.037666 -3.485840 3.485847
										CHANNELS 3 Xrotation Yrotation Zrotation
										JOINT LeftHandThumb3
										{
											OFFSET 6.496506 -3.750763 3.750761
											CHANNELS 3 Xrotation Yrotation Zrotation
											JOINT LeftHandThumb4
											{
												OFFSET 5.616882 -3.242905 3.242910
												CHANNELS 3 Xrotation Yrotation Zrotation
												End Site
												{
													OFFSET -1.254608 7.132141 0.375429
												}
											}
										}
									}
								}
								JOINT LeftHandPinky1
								{
									OFFSET 18.920792 -0.453171 -11.426712
									CHANNELS 3 Xrotation Yrotation Zrotation
									JOINT LeftHandPinky2
									{
										OFFSET 4.919586 0.000000 0.000000
										CHANNELS 3 Xrotation Yrotation Zrotation
										JOINT LeftHandPinky3
										{
											OFFSET 5.233047 0.000000 0.000000
											CHANNELS 3 Xrotation Yrotation Zrotation
											JOINT LeftHandPinky4
											{
												OFFSET 5.571716 0.000000 0.000000
												CHANNELS 3 Xrotation Yrotation Zrotation
												End Site
												{
													OFFSET -3.459808 4.342407 -0.466164
												}
											}
										}
									}
								}
								JOINT LeftHandRing1
								{
									OFFSET 22.726120 -0.094986 -6.500475
									CHANNELS 3 Xrotation Yrotation Zrotation
									JOINT LeftHandRing2
									{
										OFFSET 6.408615 0.000000 0.000000
										CHANNELS 3 Xrotation Yrotation Zrotation
										JOINT LeftHandRing3
										{
											OFFSET 6.150223 0.000000 0.000000
											CHANNELS 3 Xrotation Yrotation Zrotation
											JOINT LeftHandRing4
											{
												OFFSET 6.145386 0.000000 0.000000
												CHANNELS 3 Xrotation Yrotation Zrotation
												End Site
												{
													OFFSET -3.671402 4.923981 -0.202372
												}
											}
										}
									}
								}
								JOINT LeftHandMiddle1
								{
									OFFSET 23.373947 0.000000 0.000001
									CHANNELS 3 Xrotation Yrotation Zrotation
									JOINT LeftHandMiddle2
									{
										OFFSET 6.996567 0.000000 0.000000
										CHANNELS 3 Xrotation Yrotation Zrotation
										JOINT LeftHandMiddle3
										{
											OFFSET 7.015945 0.000000 0.000000
											CHANNELS 3 Xrotation Yrotation Zrotation
											JOINT LeftHandMiddle4
											{
												OFFSET 7.721573 0.000000 0.000000
												CHANNELS 3 Xrotation Yrotation Zrotation
												End Site
												{
													OFFSET -4.651108 6.158463 0.251582
												}
											}
										}
									}
								}
								JOINT LeftHandIndex1
								{
									OFFSET 21.310577 -0.490082 6.209344
									CHANNELS 3 Xrotation Yrotation Zrotation
									JOINT LeftHandIndex2
									{
										OFFSET 7.536453 0.000000 0.000000
										CHANNELS 3 Xrotation Yrotation Zrotation
										JOINT LeftHandIndex3
										{
											OFFSET 7.512344 0.000000 0.000000
											CHANNELS 3 Xrotation Yrotation Zrotation
											JOINT LeftHandIndex4
											{
												OFFSET 10.212402 0.000000 0.000001
												CHANNELS 3 Xrotation Yrotation Zrotation
												End Site
												{
													OFFSET -5.180801 8.690506 1.388433
												}
											}
										}
									}
								}
							}
						}
					}
				}
				JOINT RightShoulder
				{
					OFFSET -17.399500 24.608795 1.168800
					CHANNELS 3 Xrotation Yrotation Zrotation
					JOINT RightArm
					{
						OFFSET -18.980635 5.765305 1.818600
						CHANNELS 3 Xrotation Yrotation Zrotation
						JOINT RightForeArm
						{
							OFFSET -49.290169 0.000000 0.000000
							CHANNELS 3 Xrotation Yrotation Zrotation
							JOINT RightHand
							{
								OFFSET -31.562012 0.000000 0.000000
								CHANNELS 3 Xrotation Yrotation Zrotation
								JOINT RightHandThumb1
								{
									OFFSET -6.133995 -4.388519 7.076070
									CHANNELS 3 Xrotation Yrotation Zrotation
									JOINT RightHandThumb2
									{
										OFFSET -6.037666 -3.485840 3.485847
										CHANNELS 3 Xrotation Yrotation Zrotation
										JOINT RightHandThumb3
										{
											OFFSET -6.496506 -3.750763 3.750761
											CHANNELS 3 Xrotation Yrotation Zrotation
											JOINT RightHandThumb4
											{
												OFFSET -5.616882 -3.242905 3.242910
												CHANNELS 3 Xrotation Yrotation Zrotation
												End Site
												{
													OFFSET 1.254608 7.132141 0.375429
												}
											}
										}
									}
								}
								JOINT RightHandIndex1
								{
									OFFSET -21.310577 -0.490082 6.209344
									CHANNELS 3 Xrotation Yrotation Zrotation
									JOINT RightHandIndex2
									{
										OFFSET -7.536453 0.000000 0.000000
										CHANNELS 3 Xrotation Yrotation Zrotation
										JOINT RightHandIndex3
										{
											OFFSET -7.512344 0.000000 0.000000
											CHANNELS 3 Xrotation Yrotation Zrotation
											JOINT RightHandIndex4
											{
												OFFSET -10.212402 0.000000 0.000001
												CHANNELS 3 Xrotation Yrotation Zrotation
												End Site
												{
													OFFSET 5.180801 8.690506 1.388433
												}
											}
										}
									}
								}
								JOINT RightHandMiddle1
								{
									OFFSET -23.373947 0.000000 0.000001
									CHANNELS 3 Xrotation Yrotation Zrotation
									JOINT RightHandMiddle2
									{
										OFFSET -6.996567 0.000000 0.000000
										CHANNELS 3 Xrotation Yrotation Zrotation
										JOINT RightHandMiddle3
										{
											OFFSET -7.015945 0.000000 0.000000
											CHANNELS 3 Xrotation Yrotation Zrotation
											JOINT RightHandMiddle4
											{
												OFFSET -7.721573 0.000000 0.000000
												CHANNELS 3 Xrotation Yrotation Zrotation
												End Site
												{
													OFFSET 4.651108 6.158463 0.251582
												}
											}
										}
									}
								}
								JOINT RightHandRing1
								{
									OFFSET -22.726120 -0.094986 -6.500475
									CHANNELS 3 Xrotation Yrotation Zrotation
									JOINT RightHandRing2
									{
										OFFSET -6.408615 0.000000 0.000000
										CHANNELS 3 Xrotation Yrotation Zrotation
										JOINT RightHandRing3
										{
											OFFSET -6.150223 0.000000 0.000000
											CHANNELS 3 Xrotation Yrotation Zrotation
											JOINT RightHandRing4
											{
												OFFSET -6.145386 0.000000 0.000000
												CHANNELS 3 Xrotation Yrotation Zrotation
												End Site
												{
													OFFSET 3.671402 4.923981 -0.202372
												}
											}
										}
									}
								}
								JOINT RightHandPinky1
								{
									OFFSET -18.920792 -0.453171 -11.426712
									CHANNELS 3 Xrotation Yrotation Zrotation
									JOINT RightHandPinky2
									{
										OFFSET -4.919586 0.000000 0.000000
										CHANNELS 3 Xrotation Yrotation Zrotation
										JOINT RightHandPinky3
										{
											OFFSET -5.233047 0.000000 0.000000
											CHANNELS 3 Xrotation Yrotation Zrotation
											JOINT RightHandPinky4
											{
												OFFSET -5.571716 0.000000 0.000000
												CHANNELS 3 Xrotation Yrotation Zrotation
												End Site
												{
													OFFSET 3.459808 4.342407 -0.466164
												}
											}
										}
									}
								}
							}
						}
					}
				}
			}
		}
	}
	JOINT LeftUpLeg
	{
		OFFSET 19.899099 -7.885101 -3.429500
		CHANNELS 3 Xrotation Yrotation Zrotation
		JOINT LeftLeg
		{
			OFFSET 1.745560 -36.997807 10.304700
			CHANNELS 3 Xrotation Yrotation Zrotation
			JOINT LeftFoot
			{
				OFFSET -1.745558 -29.803308 -13.615400
				CHANNELS 3 Xrotation Yrotation Zrotation
				JOINT LeftToeBase
				{
					OFFSET 1.181900 -18.539904 15.226099
					CHANNELS 3 Xrotation Yrotation Zrotation
					JOINT LeftToe_End
					{
						OFFSET -0.863701 1.402801 16.534700
						CHANNELS 3 Xrotation Yrotation Zrotation
						End Site
						{
							OFFSET 0.000000 16.616566 0.000000
						}
					}
				}
			}
		}
	}
	JOINT RightUpLeg
	{
		OFFSET -19.899099 -7.885101 -3.429500
		CHANNELS 3 Xrotation Yrotation Zrotation
		JOINT RightLeg
		{
			OFFSET -1.745560 -36.997807 10.304700
			CHANNELS 3 Xrotation Yrotation Zrotation
			JOINT RightFoot
			{
				OFFSET 1.745558 -29.803308 -13.615400
				CHANNELS 3 Xrotation Yrotation Zrotation
				JOINT RightToeBase
				{
					OFFSET -1.181900 -18.539904 15.226099
					CHANNELS 3 Xrotation Yrotation Zrotation
					JOINT RightToe_End
					{
						OFFSET 0.863701 1.402801 16.534700
						CHANNELS 3 Xrotation Yrotation Zrotation
						End Site
						{
							OFFSET 0.000000 16.616566 0.000000
						}
					}
				}
			}
		}
	}
}
MOTION
Frames: 4
Frame Time: 0.033333
1.713532 97.154259 1.925527 -3.823051 3.900930 -2.527662 5.988307 0.217570 2.676632 -3.550194 0.586459 0.346679 -3.529465 0.741175 0.341944 2.004083 -0.186728 1.450205 2.163149 0.933398 -0.591279 0.000000 0.000000 0.000000 3.238150 -7.216389 -2.362674 -2.386293 17.298550 -78.297751 0.076715 -11.893673 -2.055603 -1.157246 2.633381 1.090917 10.756202 -0.276887 15.888955 -0.880884 26.402960 -5.959952 -4.776568 4.322029 -1.682879 0.000003 0.000002 -0.000002 -4.041948 12.927747 -17.158055 8.429364 2.581990 -31.029939 5.091527 2.540840 -14.265630 0.000001 0.000001 -0.000007 -3.667808 10.861637 -6.837897 2.992261 3.448162 -29.220044 1.678238 2.521100 -15.350464 -0.000001 -0.000002 0.000003 -1.911353 4.426633 -9.349107 -0.022935 4.067427 -23.702469 -0.529135 0.887065 -11.496392 -0.000001 -0.000002 0.000001 1.188923 0.646890 -5.021617 -1.786477 1.895392 -16.721312 -1.612265 3.833742 -12.990712 -0.000002 0.000001 0.000001 3.343519 -0.133894 4.446271 4.379480 -6.229665 76.335294 -0.425130 16.015470 0.267634 -0.393417 -6.586840 -2.083722 15.798719 -2.798465 -17.233595 -2.088272 -31.111583 7.333979 -6.633705 -3.825886 2.615383 0.000003 0.000003 0.000003 2.362199 -3.636382 8.332182 -2.157196 -2.437992 18.528094 -1.901869 -4.837289 14.309933 -0.000001 0.000000 0.000004 -1.983319 -5.674623 13.528944 0.253963 -5.076556 26.884024 -0.659429 -1.108944 11.605343 -0.000000 0.000001 -0.000006 -4.978007 -10.103404 10.693358 4.025802 -4.043560 33.181947 2.105822 -3.144345 15.516185 -0.000001 -0.000000 -0.000003 -6.473256 -11.328732 23.223500 10.712090 -2.553426 34.778275 6.412452 -3.074557 15.235512 -0.000000 -0.000000 0.000002 -12.192582 7.018045 12.303294 18.933156 -5.781737 -0.222084 24.008074 7.130030 -10.967636 -29.401816 0.001475 0.002084 -0.000000 -0.000000 0.000000 -8.953797 -3.845492 7.296572 14.300361 5.916402 -0.188472 25.626221 -3.974492 -3.823652 -28.021102 0.016706 0.089019 -0.000000 0.000000 0.000000 
1.730381 96.996429 1.994965 -3.835456 2.857985 -2.639558 5.941859 0.223136 2.723345 -3.512236 0.613827 0.285824 -3.487791 0.766016 0.282548 2.154778 -0.015502 1.428979 2.177335 0.965886 -0.547266 0.000000 0.000000 0.000000 3.237793 -7.114134 -2.393170 -2.108276 17.343985 -78.169609 0.161729 -11.782343 -1.948443 -1.194869 2.669827 1.249371 10.756202 -0.276887 15.888956 -0.915278 26.346669 -5.959009 -4.803632 4.263928 -1.696006 0.000000 0.000001 0.000000 -4.042292 12.927520 -17.092190 8.428757 2.581685 -30.964021 5.091028 2.540617 -14.199935 -0.000001 0.000001 0.000001 -3.666556 10.861322 -6.772029 2.992416 3.447534 -29.154051 1.678283 2.520685 -15.284626 -0.000002 0.000000 0.000003 -1.911412 4.426652 -9.283090 -0.023383 4.067158 -23.636698 -0.529036 0.886646 -11.430463 -0.000000 -0.000001 0.000004 1.188922 0.646979 -4.955681 -1.786391 1.895527 -16.655387 -1.612023 3.833514 -12.924752 -0.000001 0.000003 0.000001 3.311623 0.091929 4.217752 4.366389 -5.988693 76.476166 -0.465559 16.273633 0.272864 -0.416916 -6.485800 -2.022939 15.813835 -2.933461 -17.263595 -2.007818 -31.228540 7.344217 -6.574556 -3.947990 2.587361 -0.000001 0.000003 -0.000001 2.361015 -3.637032 8.481600 -2.157131 -2.438619 18.677374 -1.901527 -4.837889 14.459420 -0.000001 -0.000001 -0.000002 -1.982688 -5.673364 13.919283 0.254417 -5.076399 27.274216 -0.659083 -1.109401 11.995612 -0.000000 0.000000 -0.000009 -4.977161 -10.101240 11.083297 4.024116 -4.043557 33.572087 2.105920 -3.143788 15.906495 -0.000001 0.000000 -0.000002 -6.471062 -11.326964 23.613733 10.710302 -2.553799 35.168968 6.411460 -3.074403 15.625927 0.000000 -0.000002 0.000002 -11.906173 7.024423 12.605454 19.560145 -5.048253 -0.278493 23.238353 7.266431 -11.277126 -29.401775 0.001489 0.002098 -0.000000 0.000002 -0.000000 -9.352900 -3.979413 7.577778 14.788686 6.887616 -0.250820 25.678159 -4.098031 -4.046379 -28.012170 -0.015799 0.110542 -0.000000 -0.000000 0.000000 
1.752925 96.599358 2.158669 -3.919441 0.252078 -2.753690 5.833795 0.232937 2.816633 -3.421765 0.679311 0.138895 -3.388187 0.825250 0.139244 2.529383 0.425980 1.387265 2.211935 1.062079 -0.436555 -0.000000 -0.000000 -0.000000 3.237332 -6.867841 -2.471289 -1.385395 17.452656 -77.892133 0.410556 -11.535549 -1.674956 -1.288354 2.787081 1.588563 10.756203 -0.276888 15.888955 -1.001390 26.205657 -5.957019 -4.871575 4.118303 -1.728836 0.000001 0.000004 -0.000001 -4.043202 12.927057 -16.927242 8.427322 2.580972 -30.798733 5.089849 2.540063 -14.035206 0.000000 0.000000 -0.000002 -3.663568 10.860610 -6.607003 2.992864 3.446036 -28.988668 1.678408 2.519672 -15.119541 -0.000001 0.000000 0.000002 -1.911628 4.426743 -9.117697 -0.024422 4.066537 -23.471860 -0.528880 0.885565 -11.265165 -0.000001 0.000000 0.000008 1.188838 0.647170 -4.790359 -1.786104 1.895889 -16.490107 -1.611504 3.832937 -12.759468 -0.000003 0.000003 0.000001 3.240634 0.638583 3.664721 4.326372 -5.397312 76.809931 -0.559293 16.897753 0.285189 -0.476092 -6.241808 -1.881719 15.851580 -3.271511 -17.338980 -1.805868 -31.521647 7.371112 -6.426667 -4.254049 2.517845 -0.000001 -0.000001 0.000002 2.358109 -3.638722 8.856016 -2.156954 -2.440245 19.051489 -1.900780 -4.839529 14.833829 0.000001 0.000000 0.000002 -1.981586 -5.671236 14.897080 0.255545 -5.076962 28.251846 -0.658284 -1.110696 12.973346 -0.000000 0.000000 0.000001 -4.976073 -10.097688 12.060234 4.020669 -4.044311 34.549573 2.106500 -3.142968 16.884190 -0.000000 0.000000 -0.000002 -6.466927 -11.324479 24.591326 10.707830 -2.555237 36.147492 6.410097 -3.074619 16.603927 0.000001 0.000001 0.000002 -11.027833 7.147576 12.850963 20.909511 -4.370518 -0.376271 21.523065 8.805894 -12.337167 -29.401799 0.001498 0.002092 0.000000 0.000001 0.000000 -10.384483 -4.295304 8.141667 16.204938 9.336549 -0.388456 25.753971 -4.379318 -4.660330 -28.025204 -0.094252 0.140638 -0.000000 0.000000 0.000000 
1.828372 96.111954 2.346543 -4.043057 -3.130828 -2.891684 5.711084 0.242369 2.932292 -3.313976 0.757981 -0.040656 -3.268916 0.895955 -0.035640 3.010708 1.029354 1.357884 2.254856 1.220048 -0.291142 0.000000 -0.000000 -0.000000 3.237587 -6.568147 -2.576964 -0.395372 17.580487 -77.621528 0.813952 -11.283065 -1.307666 -1.408823 2.997418 1.904758 10.756203 -0.276888 15.888953 -1.113850 26.021638 -5.954784 -4.960501 3.928333 -1.771981 0.000002 0.000001 0.000001 -4.044335 12.926591 -16.711897 8.425616 2.580130 -30.583070 5.088408 2.539418 -13.820189 -0.000000 0.000000 -0.000002 -3.659691 10.859915 -6.391558 2.993493 3.444172 -28.772773 1.678596 2.518434 -14.904094 -0.000000 -0.000001 0.000003 -1.911860 4.426911 -8.901772 -0.025726 4.065784 -23.256712 -0.528653 0.884260 -11.049345 -0.000000 -0.000000 0.000004 1.188784 0.647456 -4.574564 -1.785807 1.896392 -16.274365 -1.610768 3.832250 -12.543728 -0.000002 0.000001 0.000001 3.165316 1.308999 2.985181 4.259775 -4.655658 77.203800 -0.662039 17.662328 0.298685 -0.553588 -5.943446 -1.722134 15.900597 -3.712231 -17.437744 -1.541697 -31.904107 7.408685 -6.234422 -4.653755 2.428447 -0.000000 0.000001 0.000003 2.354480 -3.641135 9.344375 -2.156796 -2.442426 19.539489 -1.899901 -4.841872 15.322312 0.000001 0.000000 -0.000001 -1.981048 -5.670714 16.172660 0.257165 -5.079632 29.527109 -0.657452 -1.112731 14.248755 -0.000000 0.000000 -0.000004 -4.976689 -10.097081 13.334758 4.017924 -4.046945 35.824728 2.107992 -3.143087 18.159615 -0.000000 -0.000000 -0.000003 -6.464192 -11.325511 25.866688 10.708888 -2.558040 37.423812 6.410863 -3.076099 17.879700 0.000001 -0.000001 0.000000 -9.672579 7.201087 13.224447 22.306643 -3.319337 -0.501536 19.560036 10.202775 -13.750116 -29.535025 0.030090 0.038874 0.000000 0.000001 0.000000 -11.666784 -4.698737 8.814923 17.940134 12.537624 -0.500947 26.002769 -4.771053 -5.460646 -28.064117 -0.190229 0.183776 -0.000000 0.000001 0.000000 
